<mxfile host="app.diagrams.net" modified="2020-10-04T15:17:44.516Z" agent="5.0 (Windows)" etag="mHiG9Jxo1xI_krcgAwzv" version="13.7.7" type="github" pages="2">
  <diagram name="Page-1" id="e7e014a7-5840-1c2e-5031-d8a46d1fe8dd">
    <mxGraphModel dx="942" dy="583" grid="1" gridSize="10" guides="1" tooltips="1" connect="1" arrows="1" fold="1" page="1" pageScale="1" pageWidth="827" pageHeight="1169" background="#ffffff" math="0" shadow="0">
      <root>
        <mxCell id="0" />
        <mxCell id="1" parent="0" />
        <mxCell id="2" value="Requirement - Trọng" style="swimlane;whiteSpace=wrap" parent="1" vertex="1">
          <mxGeometry x="40" y="40" width="320" height="480" as="geometry" />
        </mxCell>
        <mxCell id="rS6dLhZMkmuUpzraP9A6-42" value="" style="endArrow=classic;html=1;exitX=0.5;exitY=1;exitDx=0;exitDy=0;entryX=0.5;entryY=0;entryDx=0;entryDy=0;" parent="2" source="_u92uwHQ9xJIyA4-MkIm-22" target="mU8VDw6BHfqq7bU4-AUH-48" edge="1">
          <mxGeometry width="50" height="50" relative="1" as="geometry">
            <mxPoint x="150" y="45" as="sourcePoint" />
            <mxPoint x="220" y="110" as="targetPoint" />
          </mxGeometry>
        </mxCell>
        <mxCell id="rS6dLhZMkmuUpzraP9A6-47" value="" style="endArrow=classic;html=1;entryX=0.5;entryY=0;entryDx=0;entryDy=0;exitX=0.494;exitY=1.037;exitDx=0;exitDy=0;exitPerimeter=0;" parent="2" source="mU8VDw6BHfqq7bU4-AUH-49" target="_u92uwHQ9xJIyA4-MkIm-28" edge="1">
          <mxGeometry width="50" height="50" relative="1" as="geometry">
            <mxPoint x="220" y="180" as="sourcePoint" />
            <mxPoint x="220" y="230" as="targetPoint" />
          </mxGeometry>
        </mxCell>
        <mxCell id="rS6dLhZMkmuUpzraP9A6-51" value="" style="endArrow=classic;html=1;exitX=0.493;exitY=1.045;exitDx=0;exitDy=0;exitPerimeter=0;entryX=0.5;entryY=0;entryDx=0;entryDy=0;" parent="2" source="_u92uwHQ9xJIyA4-MkIm-29" target="_u92uwHQ9xJIyA4-MkIm-32" edge="1">
          <mxGeometry width="50" height="50" relative="1" as="geometry">
            <mxPoint x="220" y="290" as="sourcePoint" />
            <mxPoint x="229" y="350" as="targetPoint" />
          </mxGeometry>
        </mxCell>
        <mxCell id="_u92uwHQ9xJIyA4-MkIm-22" value="25-9" style="ellipse;whiteSpace=wrap;html=1;aspect=fixed;fillColor=#cdeb8b;strokeColor=#36393d;" parent="2" vertex="1">
          <mxGeometry x="100" y="30" width="40" height="40" as="geometry" />
        </mxCell>
        <mxCell id="mU8VDw6BHfqq7bU4-AUH-48" value="9 ngày - end 4-10" style="swimlane;fontStyle=0;childLayout=stackLayout;horizontal=1;startSize=26;fillColor=none;horizontalStack=0;resizeParent=1;resizeParentMax=0;resizeLast=0;collapsible=1;marginBottom=0;" parent="2" vertex="1">
          <mxGeometry x="40" y="120" width="160" height="80" as="geometry">
            <mxRectangle x="65" y="100" width="80" height="26" as="alternateBounds" />
          </mxGeometry>
        </mxCell>
        <mxCell id="mU8VDw6BHfqq7bU4-AUH-49" value="Lấy requirement (yêu cầu chức năng, phi chức năng)" style="text;strokeColor=none;fillColor=none;align=left;verticalAlign=top;spacingLeft=4;spacingRight=4;overflow=hidden;rotatable=0;points=[[0,0.5],[1,0.5]];portConstraint=eastwest;whiteSpace=wrap;" parent="mU8VDw6BHfqq7bU4-AUH-48" vertex="1">
          <mxGeometry y="26" width="160" height="54" as="geometry" />
        </mxCell>
        <mxCell id="_u92uwHQ9xJIyA4-MkIm-28" value="7 ngày - end 11-10" style="swimlane;fontStyle=0;childLayout=stackLayout;horizontal=1;startSize=26;fillColor=none;horizontalStack=0;resizeParent=1;resizeParentMax=0;resizeLast=0;collapsible=1;marginBottom=0;" parent="2" vertex="1">
          <mxGeometry x="40" y="240" width="160" height="80" as="geometry" />
        </mxCell>
        <mxCell id="_u92uwHQ9xJIyA4-MkIm-29" value="Vẽ biểu đồ phân rã chức năng (BFD)" style="text;strokeColor=none;fillColor=none;align=left;verticalAlign=top;spacingLeft=4;spacingRight=4;overflow=hidden;rotatable=0;points=[[0,0.5],[1,0.5]];portConstraint=eastwest;whiteSpace=wrap;" parent="_u92uwHQ9xJIyA4-MkIm-28" vertex="1">
          <mxGeometry y="26" width="160" height="54" as="geometry" />
        </mxCell>
        <mxCell id="_u92uwHQ9xJIyA4-MkIm-32" value="7 ngày - end 11-10" style="swimlane;fontStyle=0;childLayout=stackLayout;horizontal=1;startSize=26;fillColor=none;horizontalStack=0;resizeParent=1;resizeParentMax=0;resizeLast=0;collapsible=1;marginBottom=0;" parent="2" vertex="1">
          <mxGeometry x="150" y="390" width="140" height="52" as="geometry" />
        </mxCell>
        <mxCell id="_u92uwHQ9xJIyA4-MkIm-33" value="Vẽ Use Case Diagram" style="text;strokeColor=none;fillColor=none;align=left;verticalAlign=top;spacingLeft=4;spacingRight=4;overflow=hidden;rotatable=0;points=[[0,0.5],[1,0.5]];portConstraint=eastwest;" parent="_u92uwHQ9xJIyA4-MkIm-32" vertex="1">
          <mxGeometry y="26" width="140" height="26" as="geometry" />
        </mxCell>
        <mxCell id="3" value="Database - Lợi" style="swimlane;whiteSpace=wrap" parent="1" vertex="1">
          <mxGeometry x="445" y="40" width="335" height="480" as="geometry">
            <mxRectangle x="445" y="40" width="120" height="23" as="alternateBounds" />
          </mxGeometry>
        </mxCell>
        <mxCell id="14" value="" style="edgeStyle=elbowEdgeStyle;elbow=horizontal;verticalAlign=bottom;endArrow=open;endSize=8;strokeColor=#FF0000;endFill=1;rounded=0;exitX=0.5;exitY=1;exitDx=0;exitDy=0;entryX=0.5;entryY=0;entryDx=0;entryDy=0;" parent="3" source="_u92uwHQ9xJIyA4-MkIm-23" target="_u92uwHQ9xJIyA4-MkIm-24" edge="1">
          <mxGeometry x="40" y="20" as="geometry">
            <mxPoint x="90" y="110" as="targetPoint" />
            <mxPoint x="85" y="70" as="sourcePoint" />
          </mxGeometry>
        </mxCell>
        <mxCell id="17" value="" style="endArrow=open;strokeColor=#FF0000;endFill=1;rounded=0;entryX=0.5;entryY=0;entryDx=0;entryDy=0;exitX=0.5;exitY=1;exitDx=0;exitDy=0;exitPerimeter=0;" parent="3" source="_u92uwHQ9xJIyA4-MkIm-25" target="rS6dLhZMkmuUpzraP9A6-43" edge="1">
          <mxGeometry relative="1" as="geometry">
            <mxPoint x="75" y="220" as="targetPoint" />
            <mxPoint x="90" y="160" as="sourcePoint" />
          </mxGeometry>
        </mxCell>
        <mxCell id="_u92uwHQ9xJIyA4-MkIm-24" value="7 ngày" style="swimlane;fontStyle=0;childLayout=stackLayout;horizontal=1;startSize=26;fillColor=none;horizontalStack=0;resizeParent=1;resizeParentMax=0;resizeLast=0;collapsible=1;marginBottom=0;" parent="3" vertex="1">
          <mxGeometry x="20" y="105" width="140" height="52" as="geometry" />
        </mxCell>
        <mxCell id="_u92uwHQ9xJIyA4-MkIm-25" value="Bóc tách model LazOP" style="text;strokeColor=none;fillColor=none;align=left;verticalAlign=top;spacingLeft=4;spacingRight=4;overflow=hidden;rotatable=0;points=[[0,0.5],[1,0.5]];portConstraint=eastwest;whiteSpace=wrap;" parent="_u92uwHQ9xJIyA4-MkIm-24" vertex="1">
          <mxGeometry y="26" width="140" height="26" as="geometry" />
        </mxCell>
        <mxCell id="rS6dLhZMkmuUpzraP9A6-43" value="Tập hợp các đối tượng cần thiết cho database" style="rounded=0;whiteSpace=wrap;html=1;" parent="3" vertex="1">
          <mxGeometry x="30" y="210" width="120" height="60" as="geometry" />
        </mxCell>
        <mxCell id="rS6dLhZMkmuUpzraP9A6-48" value="Vẽ biểu đồ thực thể quan hệ (ERD)" style="rounded=0;whiteSpace=wrap;html=1;" parent="3" vertex="1">
          <mxGeometry x="30" y="300" width="120" height="60" as="geometry" />
        </mxCell>
        <mxCell id="rS6dLhZMkmuUpzraP9A6-56" value="" style="endArrow=classic;html=1;exitX=0.5;exitY=1;exitDx=0;exitDy=0;entryX=0.5;entryY=0;entryDx=0;entryDy=0;" parent="3" source="rS6dLhZMkmuUpzraP9A6-43" target="rS6dLhZMkmuUpzraP9A6-48" edge="1">
          <mxGeometry width="50" height="50" relative="1" as="geometry">
            <mxPoint x="25" y="360" as="sourcePoint" />
            <mxPoint x="75" y="310" as="targetPoint" />
          </mxGeometry>
        </mxCell>
        <mxCell id="OaehYao2ePnqHA_qCyAD-17" value="Vẽ mô hình dữ liệu mức vật lý ( cài đặt database )" style="rounded=0;whiteSpace=wrap;html=1;" parent="3" vertex="1">
          <mxGeometry x="30" y="400" width="120" height="60" as="geometry" />
        </mxCell>
        <mxCell id="_u92uwHQ9xJIyA4-MkIm-21" value="" style="endArrow=classic;html=1;exitX=0.5;exitY=1;exitDx=0;exitDy=0;entryX=0.5;entryY=0;entryDx=0;entryDy=0;" parent="3" source="rS6dLhZMkmuUpzraP9A6-48" target="OaehYao2ePnqHA_qCyAD-17" edge="1">
          <mxGeometry width="50" height="50" relative="1" as="geometry">
            <mxPoint x="195" y="440" as="sourcePoint" />
            <mxPoint x="245" y="390" as="targetPoint" />
          </mxGeometry>
        </mxCell>
        <mxCell id="_u92uwHQ9xJIyA4-MkIm-23" value="25-9" style="ellipse;whiteSpace=wrap;html=1;aspect=fixed;fillColor=#cdeb8b;strokeColor=#36393d;" parent="3" vertex="1">
          <mxGeometry x="70" y="30" width="40" height="40" as="geometry" />
        </mxCell>
        <mxCell id="rS6dLhZMkmuUpzraP9A6-44" value="" style="endArrow=classic;html=1;exitX=0.7;exitY=1.031;exitDx=0;exitDy=0;entryX=0;entryY=0.5;entryDx=0;entryDy=0;exitPerimeter=0;" parent="1" source="mU8VDw6BHfqq7bU4-AUH-49" target="rS6dLhZMkmuUpzraP9A6-43" edge="1">
          <mxGeometry width="50" height="50" relative="1" as="geometry">
            <mxPoint x="260" y="200" as="sourcePoint" />
            <mxPoint x="440" y="180" as="targetPoint" />
          </mxGeometry>
        </mxCell>
        <mxCell id="rS6dLhZMkmuUpzraP9A6-45" value="Yêu cầu chức năng múc chi tiết" style="edgeLabel;html=1;align=center;verticalAlign=middle;resizable=0;points=[];" parent="rS6dLhZMkmuUpzraP9A6-44" vertex="1" connectable="0">
          <mxGeometry x="0.1241" y="-1" relative="1" as="geometry">
            <mxPoint as="offset" />
          </mxGeometry>
        </mxCell>
        <mxCell id="rS6dLhZMkmuUpzraP9A6-52" value="" style="endArrow=classic;html=1;entryX=0.5;entryY=0;entryDx=0;entryDy=0;exitX=0.471;exitY=1.115;exitDx=0;exitDy=0;exitPerimeter=0;" parent="1" source="_u92uwHQ9xJIyA4-MkIm-33" target="rS6dLhZMkmuUpzraP9A6-50" edge="1">
          <mxGeometry width="50" height="50" relative="1" as="geometry">
            <mxPoint x="283.4375" y="460" as="sourcePoint" />
            <mxPoint x="290" y="566.7106781186548" as="targetPoint" />
          </mxGeometry>
        </mxCell>
        <mxCell id="_u92uwHQ9xJIyA4-MkIm-36" value="" style="endArrow=classic;html=1;strokeColor=#000000;entryX=0.75;entryY=0;entryDx=0;entryDy=0;exitX=0.5;exitY=1;exitDx=0;exitDy=0;" parent="1" source="OaehYao2ePnqHA_qCyAD-17" target="rS6dLhZMkmuUpzraP9A6-50" edge="1">
          <mxGeometry width="50" height="50" relative="1" as="geometry">
            <mxPoint x="450" y="560" as="sourcePoint" />
            <mxPoint x="500" y="510" as="targetPoint" />
          </mxGeometry>
        </mxCell>
        <mxCell id="rS6dLhZMkmuUpzraP9A6-55" value="" style="endArrow=classic;html=1;entryX=0.5;entryY=0;entryDx=0;entryDy=0;exitX=0.486;exitY=0.977;exitDx=0;exitDy=0;exitPerimeter=0;" parent="1" source="_u92uwHQ9xJIyA4-MkIm-29" target="_u92uwHQ9xJIyA4-MkIm-17" edge="1">
          <mxGeometry width="50" height="50" relative="1" as="geometry">
            <mxPoint x="200" y="200" as="sourcePoint" />
            <mxPoint x="130" y="340" as="targetPoint" />
          </mxGeometry>
        </mxCell>
        <mxCell id="_u92uwHQ9xJIyA4-MkIm-43" value="Quick design - Trọng" style="swimlane;" parent="1" vertex="1">
          <mxGeometry x="120" y="600" width="400" height="380" as="geometry" />
        </mxCell>
        <mxCell id="rS6dLhZMkmuUpzraP9A6-50" value="Vẽ Class Diagram" style="rounded=0;whiteSpace=wrap;html=1;" parent="_u92uwHQ9xJIyA4-MkIm-43" vertex="1">
          <mxGeometry x="200" y="70" width="120" height="60" as="geometry" />
        </mxCell>
        <mxCell id="_u92uwHQ9xJIyA4-MkIm-17" value="1 tháng - end 1-11" style="swimlane;fontStyle=0;childLayout=stackLayout;horizontal=1;startSize=26;fillColor=none;horizontalStack=0;resizeParent=1;resizeParentMax=0;resizeLast=0;collapsible=1;marginBottom=0;" parent="_u92uwHQ9xJIyA4-MkIm-43" vertex="1">
          <mxGeometry x="20" y="110" width="140" height="90" as="geometry" />
        </mxCell>
        <mxCell id="_u92uwHQ9xJIyA4-MkIm-18" value="Viết document, mô tả hệ thống, mô tả diagram" style="text;strokeColor=none;fillColor=none;align=left;verticalAlign=top;spacingLeft=4;spacingRight=4;overflow=hidden;rotatable=0;points=[[0,0.5],[1,0.5]];portConstraint=eastwest;whiteSpace=wrap;" parent="_u92uwHQ9xJIyA4-MkIm-17" vertex="1">
          <mxGeometry y="26" width="140" height="64" as="geometry" />
        </mxCell>
        <mxCell id="rS6dLhZMkmuUpzraP9A6-58" value="Vẽ Object Diagram" style="rounded=0;whiteSpace=wrap;html=1;" parent="_u92uwHQ9xJIyA4-MkIm-43" vertex="1">
          <mxGeometry x="200" y="170" width="120" height="60" as="geometry" />
        </mxCell>
        <mxCell id="rS6dLhZMkmuUpzraP9A6-59" value="" style="endArrow=classic;html=1;exitX=0.5;exitY=1;exitDx=0;exitDy=0;" parent="_u92uwHQ9xJIyA4-MkIm-43" source="rS6dLhZMkmuUpzraP9A6-50" target="rS6dLhZMkmuUpzraP9A6-58" edge="1">
          <mxGeometry width="50" height="50" relative="1" as="geometry">
            <mxPoint x="96" y="140" as="sourcePoint" />
            <mxPoint x="146" y="90" as="targetPoint" />
          </mxGeometry>
        </mxCell>
        <mxCell id="OaehYao2ePnqHA_qCyAD-19" value="" style="endArrow=classic;html=1;exitX=0.5;exitY=1;exitDx=0;exitDy=0;entryX=0.5;entryY=0;entryDx=0;entryDy=0;" parent="_u92uwHQ9xJIyA4-MkIm-43" source="rS6dLhZMkmuUpzraP9A6-58" target="_u92uwHQ9xJIyA4-MkIm-44" edge="1">
          <mxGeometry width="50" height="50" relative="1" as="geometry">
            <mxPoint x="186" y="180" as="sourcePoint" />
            <mxPoint x="260" y="280" as="targetPoint" />
          </mxGeometry>
        </mxCell>
        <mxCell id="_u92uwHQ9xJIyA4-MkIm-44" value="end 1-11" style="swimlane;fontStyle=0;childLayout=stackLayout;horizontal=1;startSize=26;fillColor=none;horizontalStack=0;resizeParent=1;resizeParentMax=0;resizeLast=0;collapsible=1;marginBottom=0;" parent="_u92uwHQ9xJIyA4-MkIm-43" vertex="1">
          <mxGeometry x="190" y="280" width="140" height="80" as="geometry" />
        </mxCell>
        <mxCell id="_u92uwHQ9xJIyA4-MkIm-45" value="Vẽ Sequence Diagram" style="text;strokeColor=none;fillColor=none;align=left;verticalAlign=top;spacingLeft=4;spacingRight=4;overflow=hidden;rotatable=0;points=[[0,0.5],[1,0.5]];portConstraint=eastwest;" parent="_u92uwHQ9xJIyA4-MkIm-44" vertex="1">
          <mxGeometry y="26" width="140" height="54" as="geometry" />
        </mxCell>
      </root>
    </mxGraphModel>
  </diagram>
  <diagram id="dkc9uNzX-q_aH-8mqnDz" name="Page-2">
    <mxGraphModel dx="1346" dy="833" grid="1" gridSize="10" guides="1" tooltips="1" connect="1" arrows="1" fold="1" page="1" pageScale="1" pageWidth="827" pageHeight="1169" math="0" shadow="0">
      <root>
        <mxCell id="wmoGCOoggUUCC7voKVKI-0" />
        <mxCell id="wmoGCOoggUUCC7voKVKI-1" parent="wmoGCOoggUUCC7voKVKI-0" />
      </root>
    </mxGraphModel>
  </diagram>
</mxfile>
